<?xml version="1.0" encoding="utf-8"?>
<!-- Generator: Adobe Illustrator 25.3.1, SVG Export Plug-In . SVG Version: 6.00 Build 0)  -->
<svg version="1.1" id="Layer_1" xmlns="http://www.w3.org/2000/svg" xmlns:xlink="http://www.w3.org/1999/xlink" x="0px" y="0px"
	 viewBox="0 0 926.3 506.2" style="enable-background:new 0 0 926.3 506.2;" xml:space="preserve">
<style type="text/css">
	.st0{fill-rule:evenodd;clip-rule:evenodd;fill:#7F6161;}
</style>
<path class="st0" d="M611.1,500.2c-2.7,0-5.2-1.9-5.8-4.6c-0.8-3.1,1.1-6.3,4.2-7.2c143.9-39.7,236.9-132.3,236.9-235.8
	c0-102.5-91.7-194.7-233.7-234.9c-3.1-0.9-5-4.1-4.2-7.2c0.7-2.7,3.1-4.6,5.8-4.6c0.4,0,0.8,0,1.2,0.1
	c85.6,18,159.1,50.3,212.4,93.5c55.2,44.7,84.4,97.7,84.4,153.2c0,55.9-29.5,109.1-85.3,154c-53.9,43.4-128.2,75.6-214.6,93.3
	C611.9,500.2,611.5,500.2,611.1,500.2z M315,500.2c-0.4,0-0.8,0-1.2-0.1c-86.4-17.7-160.6-50-214.5-93.3
	C43.5,361.9,14,308.7,14,252.8c0-55.5,29.2-108.5,84.3-153.2C151.6,56.4,225,24.1,310.6,6.2c0.4-0.1,0.8-0.1,1.2-0.1
	c2.7,0,5.1,1.8,5.8,4.6c0.8,3.1-1.1,6.3-4.2,7.2C171.6,58,79.9,150.2,79.9,252.7c0,103.5,92.9,196,236.7,235.7c3.1,0.9,5,4,4.2,7.2
	C320.2,498.4,317.7,500.2,315,500.2z"/>
<path class="st0" d="M611.1,494.2c141.6-39.1,241.3-132.5,241.3-241.6c0-108.2-98.2-201.1-238.1-240.7c170.3,35.7,292,130,292,240.8
	C906.3,364.2,783.1,459,611.1,494.2z M73.9,252.7c0,109,99.6,202.4,241.1,241.5C143.1,459,20,364.2,20,252.8
	C20,142.1,141.6,47.8,311.8,12C172,51.6,73.9,144.5,73.9,252.7z"/>
</svg>
